<svg width="633" height="557" viewBox="0 0 633 557" fill="none" xmlns="http://www.w3.org/2000/svg">
<g clip-path="url(#clip0_77_17)">
<path style="mix-blend-mode:multiply" d="M238.292 553.774C369.896 553.774 476.583 538.137 476.583 518.847C476.583 499.558 369.896 483.921 238.292 483.921C106.687 483.921 0 499.558 0 518.847C0 538.137 106.687 553.774 238.292 553.774Z" fill="url(#paint0_radial_77_17)"/>
<path d="M499.375 159.11C526.044 182.207 525.858 226.204 498.955 257.39C472.006 288.576 428.57 295.168 401.854 272.071C398.025 268.798 391.766 263.328 391.766 263.328L489.287 150.366C489.287 150.366 496.48 156.585 499.375 159.11Z" fill="url(#paint1_linear_77_17)"/>
<path d="M489.287 150.413C515.956 173.51 515.769 217.507 488.867 248.693C461.918 279.879 418.482 286.472 391.766 263.375C365.097 240.277 365.284 196.28 392.186 165.094C419.135 133.908 462.572 127.316 489.287 150.413Z" fill="url(#paint2_linear_77_17)"/>
<path d="M485.084 152.657C510.211 174.399 510.024 215.777 484.663 245.14C459.349 274.502 418.435 280.674 393.307 258.933C368.18 237.191 368.367 195.813 393.728 166.45C419.042 137.088 459.956 130.916 485.084 152.657Z" fill="url(#paint3_linear_77_17)"/>
<path d="M475.595 237.229C495.445 214.232 495.635 181.835 476.02 164.867C456.405 147.9 424.412 152.788 404.562 175.784C384.711 198.781 384.521 231.179 404.136 248.147C423.751 265.114 455.744 260.226 475.595 237.229Z" fill="url(#paint4_linear_77_17)"/>
<path d="M474.014 168.087C492.37 183.937 492.23 214.188 473.734 235.648C455.239 257.109 425.347 261.598 406.992 245.748C388.637 229.898 388.777 199.647 407.272 178.186C425.768 156.725 455.659 152.236 474.014 168.087Z" fill="url(#paint5_linear_77_17)"/>
<path d="M473.594 170.097C490.875 185.059 490.408 213.907 472.567 234.573C454.725 255.239 426.235 259.915 409 244.953C391.719 229.991 392.186 201.143 410.028 180.477C427.869 159.811 456.36 155.135 473.594 170.097Z" fill="url(#paint6_linear_77_17)"/>
<path d="M453.23 220.874C450.802 223.352 448.373 225.082 445.944 226.064C443.516 227.045 440.994 227.419 438.378 227.232L437.257 219.845C439.079 220.313 440.947 220.219 442.862 219.658C444.777 219.05 446.552 218.022 448.233 216.525L441.647 210.821C439.499 212.504 437.537 213.814 435.809 214.749C434.081 215.684 432.26 216.198 430.391 216.198C428.477 216.198 426.655 215.403 424.833 213.86C422.545 211.85 421.331 209.278 421.284 206.146C421.237 203.013 422.405 199.74 424.833 196.327L420.957 192.961L424.6 188.753L428.477 192.119C430.765 189.828 432.96 188.285 435.155 187.49C437.351 186.695 439.779 186.321 442.441 186.415L443.422 193.709C441.414 193.381 439.592 193.428 438.004 193.896C436.416 194.363 434.922 195.252 433.567 196.561L440.386 202.452C442.488 200.816 444.403 199.553 446.178 198.665C447.906 197.73 449.774 197.309 451.689 197.309C453.604 197.309 455.519 198.15 457.341 199.74C459.629 201.751 460.75 204.275 460.61 207.361C460.47 210.447 459.255 213.58 456.967 216.759L460.843 220.126L457.2 224.334L453.324 220.967L453.23 220.874ZM430.018 200.769C429.271 201.984 428.897 203.107 428.944 204.135C428.944 205.164 429.364 206.005 430.205 206.707C430.905 207.315 431.746 207.548 432.68 207.315C433.614 207.081 434.642 206.566 435.856 205.772L430.065 200.769H430.018ZM451.783 206.566C451.035 205.912 450.195 205.678 449.307 205.865C448.42 206.052 447.346 206.566 446.131 207.361L451.736 212.177C453.277 209.746 453.324 207.876 451.736 206.52L451.783 206.566Z" fill="#FFE4AB"/>
<path d="M451.969 219.752C449.541 222.23 447.112 223.96 444.683 224.941C442.255 225.923 439.733 226.297 437.117 226.11L435.996 218.723C437.818 219.19 439.686 219.097 441.601 218.536C443.516 217.928 445.29 216.899 446.972 215.403L440.386 209.699C438.238 211.382 436.276 212.691 434.548 213.627C432.82 214.562 430.999 215.076 429.13 215.076C427.215 215.076 425.394 214.281 423.572 212.738C421.284 210.728 420.07 208.156 420.023 205.024C419.976 201.891 421.144 198.618 423.572 195.205L419.696 191.838L423.339 187.63L427.215 190.997C429.504 188.706 431.699 187.163 433.894 186.368C436.09 185.573 438.518 185.199 441.18 185.293L442.161 192.587C440.153 192.259 438.331 192.306 436.743 192.774C435.155 193.241 433.708 194.129 432.306 195.439L439.125 201.33C441.227 199.693 443.142 198.431 444.917 197.543C446.645 196.608 448.513 196.187 450.428 196.187C452.343 196.187 454.258 197.028 456.079 198.618C458.368 200.628 459.489 203.153 459.349 206.239C459.209 209.325 457.994 212.458 455.706 215.637L459.582 219.003L455.939 223.211L452.063 219.845L451.969 219.752ZM428.757 199.647C428.009 200.862 427.636 201.984 427.683 203.013C427.683 204.042 428.103 204.883 428.944 205.585C429.644 206.192 430.485 206.426 431.419 206.192C432.353 205.959 433.381 205.444 434.595 204.649L428.803 199.647H428.757ZM450.522 205.444C449.774 204.79 448.934 204.556 448.046 204.743C447.159 204.93 446.084 205.444 444.87 206.239L450.475 211.055C452.016 208.624 452.063 206.753 450.475 205.398L450.522 205.444Z" fill="white"/>
<path style="mix-blend-mode:multiply" d="M489.287 150.413C515.956 173.51 515.769 217.507 488.867 248.693C461.918 279.879 418.482 286.472 391.766 263.375C365.097 240.277 365.284 196.28 392.186 165.094C419.135 133.908 462.572 127.316 489.287 150.413Z" fill="url(#paint7_linear_77_17)"/>
<path d="M343.286 504.213L180.75 475.178C166.599 472.653 156.837 458.533 158.799 443.618L208.727 69.1049C210.689 54.2833 223.766 43.3425 238.011 44.6517L401.714 59.4732C416.987 60.8759 427.823 74.5285 425.768 89.9579L374.485 480.929C372.43 496.498 358.418 506.925 343.239 504.213H343.286Z" fill="#535A74"/>
<path style="mix-blend-mode:multiply" d="M336.747 486.259C324.276 483.968 199.713 462.46 186.869 459.842C173.978 457.224 170.242 447.919 172.016 434.454C173.791 420.988 218.115 88.0877 219.796 75.6974C221.431 63.3072 229.371 56.1068 243.383 57.5095C257.441 58.9121 381.818 72.5648 394.755 73.7337C407.693 74.9026 411.989 81.7757 410.168 95.3348C408.346 108.894 361.594 461.946 360.053 472.232C358.512 482.565 349.171 488.503 336.7 486.212L336.747 486.259Z" fill="url(#paint8_linear_77_17)"/>
<path d="M336.046 483.453C323.95 481.209 202.375 459.701 189.905 457.13C177.434 454.558 174.492 448.153 176.22 434.874C177.948 421.596 222.131 90.2852 223.766 78.0819C225.401 65.8787 230.959 59.894 244.597 61.2031C258.235 62.5123 379.949 74.8558 392.513 75.9779C405.077 77.1001 409.654 82.7575 407.833 96.1296C406.058 109.502 360.24 459.374 358.745 469.567C357.251 479.76 348.19 485.651 336.093 483.407L336.046 483.453Z" fill="url(#paint9_linear_77_17)"/>
<path d="M328.433 91.08L297.608 87.5733C294.198 87.1993 291.91 83.9732 292.563 80.4197L292.797 79.2041C293.451 75.6507 296.72 73.0791 300.13 73.4531L330.955 76.9598C334.365 77.3338 336.653 80.56 336 84.1134L335.766 85.3291C335.112 88.8825 331.843 91.4541 328.433 91.08Z" fill="#535A74"/>
<path d="M348.517 93.4645L345.481 93.0905C342.071 92.7164 339.783 89.4903 340.437 85.9369L340.67 84.7212C341.324 81.1678 344.593 78.5962 348.003 78.9703L351.039 79.3443C354.448 79.7184 356.737 82.9445 356.083 86.4979L355.849 87.7136C355.196 91.267 351.926 93.8386 348.517 93.4645Z" fill="#535A74"/>
<path d="M150.438 364.928C145.021 364.928 140.63 360.533 140.63 355.109C140.63 349.685 145.021 345.29 150.438 345.29C155.856 345.29 160.247 349.685 160.247 355.109C160.247 360.533 155.856 364.928 150.438 364.928ZM150.438 350.808C148.057 350.808 146.142 352.725 146.142 355.109C146.142 357.494 148.057 359.411 150.438 359.411C152.82 359.411 154.735 357.494 154.735 355.109C154.735 352.725 152.82 350.808 150.438 350.808Z" fill="url(#paint10_linear_77_17)"/>
<path d="M457.2 127.082C451.783 127.082 447.392 122.687 447.392 117.263C447.392 111.839 451.783 107.444 457.2 107.444C462.618 107.444 467.009 111.839 467.009 117.263C467.009 122.687 462.618 127.082 457.2 127.082ZM457.2 112.962C454.818 112.962 452.903 114.879 452.903 117.263C452.903 119.648 454.818 121.565 457.2 121.565C459.582 121.565 461.497 119.648 461.497 117.263C461.497 114.879 459.582 112.962 457.2 112.962Z" fill="url(#paint11_linear_77_17)"/>
<path d="M199.199 67.6087H195.416V63.8214C195.416 62.2785 194.202 61.0629 192.66 61.0629C191.119 61.0629 189.905 62.2785 189.905 63.8214V67.6087H186.122C184.58 67.6087 183.366 68.8243 183.366 70.3672C183.366 71.9102 184.58 73.1258 186.122 73.1258H189.905V76.913C189.905 78.456 191.119 79.6716 192.66 79.6716C194.202 79.6716 195.416 78.456 195.416 76.913V73.1258H199.199C200.74 73.1258 201.955 71.9102 201.955 70.3672C201.955 68.8243 200.74 67.6087 199.199 67.6087Z" fill="url(#paint12_linear_77_17)"/>
<path d="M435.622 348.423H431.839V344.636C431.839 343.093 430.625 341.877 429.084 341.877C427.542 341.877 426.328 343.093 426.328 344.636V348.423H422.545C421.004 348.423 419.789 349.639 419.789 351.182C419.789 352.725 421.004 353.94 422.545 353.94H426.328V357.727C426.328 359.27 427.542 360.486 429.084 360.486C430.625 360.486 431.839 359.27 431.839 357.727V353.94H435.622C437.164 353.94 438.378 352.725 438.378 351.182C438.378 349.639 437.164 348.423 435.622 348.423Z" fill="url(#paint13_linear_77_17)"/>
<path d="M435.856 323.315C435.856 326.027 433.661 328.225 430.952 328.225C428.243 328.225 426.048 326.027 426.048 323.315C426.048 320.604 428.243 318.406 430.952 318.406C433.661 318.406 435.856 320.604 435.856 323.315Z" fill="url(#paint14_linear_77_17)"/>
<path d="M170.055 73.4064C170.055 76.1182 167.86 78.3157 165.151 78.3157C162.442 78.3157 160.247 76.1182 160.247 73.4064C160.247 70.6945 162.442 68.497 165.151 68.497C167.86 68.497 170.055 70.6945 170.055 73.4064Z" fill="url(#paint15_linear_77_17)"/>
<path d="M207.699 44.6517C207.699 47.3635 205.504 49.561 202.795 49.561C200.086 49.561 197.891 47.3635 197.891 44.6517C197.891 41.9398 200.086 39.7423 202.795 39.7423C205.504 39.7423 207.699 41.9398 207.699 44.6517Z" fill="url(#paint16_linear_77_17)"/>
<path d="M132.784 378.58C132.784 381.292 130.589 383.49 127.88 383.49C125.171 383.49 122.976 381.292 122.976 378.58C122.976 375.869 125.171 373.671 127.88 373.671C130.589 373.671 132.784 375.869 132.784 378.58Z" fill="url(#paint17_linear_77_17)"/>
<path d="M432.914 379.749H421.657C420.023 379.749 418.762 378.44 418.762 376.85C418.762 375.214 420.07 373.952 421.657 373.952H432.914C434.548 373.952 435.809 375.261 435.809 376.85C435.809 378.487 434.502 379.749 432.914 379.749Z" fill="url(#paint18_linear_77_17)"/>
<path d="M465.094 93.4646H453.838C452.203 93.4646 450.942 92.1554 450.942 90.5657C450.942 88.9293 452.25 87.6669 453.838 87.6669H465.094C466.728 87.6669 467.989 88.976 467.989 90.5657C467.989 92.2022 466.682 93.4646 465.094 93.4646Z" fill="url(#paint19_linear_77_17)"/>
<path d="M132.504 340.802H121.248C119.613 340.802 118.352 339.493 118.352 337.903C118.352 336.267 119.66 335.004 121.248 335.004H132.504C134.138 335.004 135.399 336.313 135.399 337.903C135.399 339.539 134.092 340.802 132.504 340.802Z" fill="url(#paint20_linear_77_17)"/>
<path d="M283.689 345.431L161.695 331.965C156.744 331.404 152.167 329.814 148.197 327.383C137.081 320.697 132.784 317.658 132.784 317.658L157.444 126.287C160.06 108.613 176.173 96.1763 193.921 98.1401L314.141 106.509C314.141 106.509 329.181 115.299 334.085 119.601C342.305 126.801 346.835 137.882 345.107 149.525L320.166 317.237C317.551 334.911 301.437 347.348 283.689 345.384V345.431Z" fill="url(#paint21_linear_77_17)"/>
<path d="M312.04 105.387C312.04 105.387 322.455 119.601 322.922 134.984C323.389 150.413 325.911 162.102 325.911 162.102L341.744 172.575L345.107 150.039C346.695 139.192 342.912 128.859 335.766 121.705C330.628 116.515 320.12 109.081 312.04 105.34V105.387Z" fill="url(#paint22_linear_77_17)"/>
<path d="M267.809 335.425L145.815 321.959C127.086 319.902 113.868 302.696 116.624 284.041L141.564 116.328C144.18 98.6544 160.293 86.2174 178.041 88.1811L300.036 101.647C318.765 103.704 331.983 120.91 329.227 139.566L304.287 307.278C301.671 324.952 285.558 337.389 267.809 335.425Z" fill="white"/>
<path d="M300.036 101.647L178.041 88.1811C160.293 86.2174 144.18 98.6544 141.564 116.328L137.968 140.407L325.864 162.102L329.227 139.566C331.983 120.91 318.765 103.704 300.036 101.647Z" fill="url(#paint23_linear_77_17)"/>
<path d="M297.421 103.33L175.426 89.8644C174.679 89.7708 173.885 89.7241 173.137 89.7241C158.332 89.2565 145.534 99.9636 143.339 114.645L139.463 140.594L319.419 161.4L323.109 136.714C324.276 128.765 322.268 120.91 317.364 114.551C312.46 108.193 305.407 104.218 297.421 103.33Z" fill="url(#paint24_linear_77_17)"/>
<path style="mix-blend-mode:screen" d="M268.417 329.347C267.669 329.347 266.875 329.253 266.128 329.16L144.133 315.694C136.193 314.806 129.094 310.832 124.19 304.473C119.286 298.114 117.231 290.259 118.445 282.311L143.386 114.598C145.581 99.9168 158.378 89.2097 173.184 89.6773C173.931 89.6773 174.725 89.7708 175.473 89.8175L297.468 103.283C305.407 104.172 312.507 108.146 317.411 114.505C322.315 120.863 324.323 128.718 323.156 136.667L298.215 304.379C296.02 319.06 283.222 329.768 268.417 329.3V329.347Z" fill="url(#paint25_linear_77_17)"/>
<path d="M153.334 297.88L133.064 295.636C127.833 295.075 124.003 290.212 124.657 285.022L126.479 270.528C127.086 265.619 131.476 262.159 136.427 262.72L156.697 264.964C161.928 265.525 165.758 270.388 165.104 275.578L163.283 290.072C162.675 294.981 158.285 298.441 153.334 297.88Z" fill="#535A74"/>
<path d="M195.463 303.21L175.192 300.966C169.961 300.405 166.132 295.542 166.832 290.352L168.7 275.858C169.354 270.949 173.745 267.489 178.695 268.05L198.966 270.294C204.197 270.855 208.026 275.718 207.326 280.908L205.458 295.402C204.804 300.311 200.413 303.771 195.463 303.257V303.21Z" fill="#535A74"/>
<path d="M237.638 308.494L217.368 306.249C212.137 305.688 208.353 300.826 209.054 295.636L211.016 281.142C211.669 276.232 216.106 272.772 221.057 273.287L241.327 275.531C246.558 276.092 250.342 280.955 249.641 286.145L247.679 300.639C247.026 305.548 242.589 309.008 237.638 308.494Z" fill="#535A74"/>
<path d="M279.766 313.824L259.496 311.58C254.265 311.019 250.482 306.156 251.229 300.966L253.237 286.472C253.938 281.562 258.375 278.103 263.326 278.617L283.596 280.861C288.827 281.422 292.61 286.285 291.863 291.475L289.855 305.969C289.154 310.878 284.717 314.338 279.766 313.824Z" fill="#535A74"/>
<path d="M158.472 261.411L138.202 259.167C132.971 258.605 129.141 253.743 129.795 248.553L131.616 234.059C132.223 229.149 136.614 225.689 141.564 226.251L161.835 228.495C167.066 229.056 170.896 233.918 170.242 239.108L168.42 253.603C167.813 258.512 163.423 261.972 158.472 261.411Z" fill="#535A74"/>
<path d="M200.6 266.741L180.33 264.497C175.099 263.936 171.269 259.073 171.97 253.883L173.838 239.389C174.492 234.48 178.882 231.02 183.833 231.581L204.103 233.825C209.334 234.386 213.164 239.249 212.463 244.438L210.595 258.933C209.941 263.842 205.551 267.302 200.6 266.788V266.741Z" fill="#535A74"/>
<path d="M242.775 272.071L222.505 269.827C217.274 269.266 213.491 264.403 214.192 259.213L216.153 244.719C216.807 239.81 221.244 236.35 226.195 236.864L246.465 239.108C251.696 239.669 255.479 244.532 254.779 249.722L252.817 264.216C252.163 269.125 247.726 272.585 242.775 272.071Z" fill="#535A74"/>
<path d="M284.904 277.401L264.634 275.157C259.403 274.596 255.619 269.733 256.367 264.543L258.375 250.049C259.076 245.14 263.513 241.68 268.463 242.194L288.734 244.439C293.965 245 297.748 249.862 297 255.052L294.992 269.546C294.292 274.456 289.855 277.916 284.904 277.401Z" fill="#535A74"/>
<path d="M164.17 224.614L143.9 222.37C138.669 221.809 134.839 216.946 135.493 211.756L137.314 197.262C137.921 192.353 142.312 188.893 147.263 189.454L167.533 191.698C172.764 192.259 176.594 197.122 175.94 202.312L174.118 216.806C173.511 221.715 169.121 225.175 164.17 224.614Z" fill="#535A74"/>
<path d="M206.345 229.944L186.075 227.7C180.844 227.139 177.014 222.276 177.715 217.086L179.583 202.592C180.237 197.683 184.627 194.223 189.578 194.784L209.848 197.028C215.079 197.589 218.909 202.452 218.208 207.642L216.34 222.136C215.686 227.045 211.296 230.505 206.345 229.991V229.944Z" fill="#535A74"/>
<path d="M248.473 235.274L228.203 233.03C222.972 232.469 219.189 227.606 219.89 222.417L221.851 207.922C222.505 203.013 226.942 199.553 231.893 200.067L252.163 202.312C257.394 202.873 261.177 207.735 260.477 212.925L258.515 227.419C257.861 232.329 253.424 235.789 248.473 235.274Z" fill="#535A74"/>
<path d="M290.648 240.558L270.378 238.314C265.147 237.752 261.364 232.89 262.111 227.7L264.12 213.206C264.82 208.296 269.257 204.836 274.208 205.351L294.478 207.595C299.709 208.156 303.493 213.019 302.745 218.209L300.737 232.703C300.036 237.612 295.599 241.072 290.648 240.558Z" fill="#535A74"/>
<path d="M169.027 187.864L148.757 185.62C143.526 185.059 139.696 180.196 140.35 175.006L142.172 160.512C142.779 155.603 147.169 152.143 152.12 152.704L172.39 154.948C177.621 155.509 181.451 160.372 180.797 165.562L178.976 180.056C178.368 184.965 173.978 188.425 169.027 187.864Z" fill="#535A74"/>
<path d="M211.156 193.194L190.885 190.95C185.654 190.389 181.825 185.526 182.525 180.336L184.393 165.842C185.047 160.933 189.438 157.473 194.388 158.034L214.659 160.278C219.89 160.839 223.719 165.702 223.019 170.892L221.151 185.386C220.497 190.295 216.106 193.755 211.156 193.241V193.194Z" fill="#535A74"/>
<path d="M253.331 198.524L233.061 196.28C227.83 195.719 224.046 190.857 224.747 185.667L226.709 171.172C227.363 166.263 231.8 162.803 236.75 163.317L257.02 165.562C262.252 166.123 266.035 170.985 265.334 176.175L263.372 190.67C262.719 195.579 258.282 199.039 253.331 198.524Z" fill="#535A74"/>
<path d="M295.459 203.855L275.189 201.61C269.958 201.049 266.175 196.187 266.922 190.997L268.93 176.503C269.631 171.593 274.068 168.133 279.019 168.648L299.289 170.892C304.52 171.453 308.303 176.316 307.556 181.505L305.548 196C304.847 200.909 300.41 204.369 295.459 203.855Z" fill="#535A74"/>
<path d="M289.574 147.701L170.662 134.282C165.431 133.721 161.601 128.859 162.255 123.669L164.077 109.174C164.684 104.265 169.074 100.805 174.025 101.366L292.937 114.785C298.168 115.346 301.998 120.209 301.344 125.399L299.523 139.893C298.915 144.802 294.525 148.262 289.574 147.701Z" fill="#44464D"/>
<g filter="url(#filter0_d_77_17)">
<path d="M372.571 384.209L363.183 392.672L383.5 415.208L392.888 406.745C396.111 403.847 394.149 396.459 388.544 390.194C382.94 383.975 375.794 381.264 372.571 384.163V384.209Z" fill="url(#paint26_linear_77_17)"/>
<path d="M376.588 401.041C383.827 409.083 387.097 417.92 383.874 420.866C380.651 423.765 372.198 419.603 364.958 411.561C357.719 403.519 354.449 394.683 357.672 391.737C360.895 388.838 369.348 392.999 376.588 401.041Z" fill="url(#paint27_linear_77_17)"/>
<path d="M357.632 391.73L342.656 405.266L368.886 434.347L383.861 420.811L357.632 391.73Z" fill="url(#paint28_linear_77_17)"/>
<path d="M361.595 414.554C368.835 422.596 372.104 431.432 368.881 434.378C365.659 437.277 357.205 433.116 349.966 425.074C342.726 417.032 339.457 408.195 342.68 405.249C345.902 402.35 354.356 406.512 361.595 414.554Z" fill="#D8D1E1"/>
<path d="M279.767 464.348L263 503.997L304.007 491.7C304.007 491.7 306.576 481.695 297.422 471.549C288.268 461.403 279.721 464.348 279.721 464.348H279.767Z" fill="#FFF4E6"/>
<path d="M279.767 464.348L344.268 405.764L352.908 408.335L288.408 466.92L279.767 464.348Z" fill="#FDFF8F"/>
<path d="M299.103 477.019L363.557 418.434L352.908 408.335L288.408 466.92L299.103 477.019Z" fill="#FFDF6F"/>
<path d="M304.428 488.708L368.881 430.123L363.557 418.434L299.103 477.019L304.428 488.708Z" fill="#FFBB33"/>
<path d="M304.054 491.7L368.508 433.116L368.881 430.123L304.428 488.708L304.054 491.7Z" fill="#FDFF8F"/>
<path d="M288.408 466.92L263.047 503.997L279.767 464.348L288.408 466.92Z" fill="#FFFBF5"/>
<path d="M304.428 488.708L263.047 503.997L304.054 491.7L304.428 488.708Z" fill="#FFFBF5"/>
<path d="M299.103 477.019L263.047 503.997L304.428 488.708L299.103 477.019Z" fill="#F5E8D5"/>
<path d="M263.047 503.997L266.363 496.189C266.363 496.189 267.624 496.47 269.399 498.433C271.173 500.397 271.22 501.566 271.22 501.566L263.093 503.997H263.047Z" fill="#331829"/>
<path d="M341.886 407.914C341.886 407.914 341.652 405.53 344.501 404.735C346.977 404.034 354.216 406.979 360.988 414.507C367.76 422.035 370.096 429.328 369.909 431.292C369.535 434.986 366.499 434.939 366.499 434.939L368.461 433.162L368.835 430.17L363.51 418.434L352.815 408.335L344.221 405.717L341.839 407.868L341.886 407.914Z" fill="#B59A67"/>
</g>
<path d="M219.983 130.635L220.59 125.726C220.684 125.025 221.057 124.557 221.945 124.651C222.832 124.744 223.112 125.305 223.019 126.006L222.272 132.178C222.178 133.067 221.524 133.347 220.917 133.254L211.296 132.085C210.642 131.991 210.128 131.617 210.222 130.729C210.315 129.84 210.969 129.56 211.576 129.653L215.172 130.074L216.854 115.954L213.257 115.533C212.604 115.44 212.09 115.066 212.183 114.177C212.277 113.289 212.931 113.008 213.538 113.102L219.563 113.803L217.601 130.355L219.983 130.635Z" fill="#59FF00"/>
<path d="M163.142 177.11L163.75 172.201C163.843 171.5 164.217 171.032 165.104 171.126C165.991 171.219 166.272 171.78 166.178 172.482L165.431 178.653C165.338 179.542 164.684 179.822 164.077 179.729L154.455 178.56C153.801 178.466 153.288 178.092 153.381 177.204C153.474 176.316 154.128 176.035 154.735 176.129L158.332 176.549L160.013 162.429L156.417 162.008C155.763 161.915 155.249 161.541 155.343 160.652C155.436 159.764 156.09 159.484 156.697 159.577L162.722 160.278L160.76 176.83L163.142 177.11Z" fill="white"/>
<path d="M230.398 131.898L238.805 132.926C239.459 133.02 239.973 133.394 239.88 134.282C239.786 135.171 239.132 135.451 238.525 135.358L227.689 134.048L228.624 126.1C228.857 124.277 229.885 123.435 231.706 123.669L238.572 124.51L239.272 118.666L230.865 117.637C230.212 117.544 229.698 117.17 229.791 116.281C229.885 115.393 230.538 115.112 231.146 115.206L239.226 116.188C240.02 116.281 240.58 116.468 241.141 117.123C241.748 117.824 241.748 118.526 241.654 119.367L241.047 124.37C240.954 125.258 240.767 125.913 240.02 126.474C239.366 126.942 238.759 127.035 237.965 126.942L231.099 126.1L230.398 131.944V131.898Z" fill="#59FF00"/>
<path d="M198.498 182.067L206.905 183.095C207.559 183.189 208.073 183.563 207.98 184.451C207.886 185.339 207.232 185.62 206.625 185.526L195.79 184.217L196.724 176.269C196.957 174.445 197.985 173.604 199.806 173.838L206.672 174.679L207.373 168.835L198.966 167.806C198.312 167.713 197.798 167.339 197.891 166.45C197.985 165.562 198.639 165.281 199.246 165.375L207.326 166.357C208.12 166.45 208.68 166.637 209.241 167.292C209.848 167.993 209.848 168.694 209.755 169.536L209.147 174.539C209.054 175.427 208.867 176.082 208.12 176.643C207.466 177.11 206.859 177.204 206.065 177.11L199.199 176.269L198.498 182.113V182.067Z" fill="white"/>
<path d="M248.427 119.741C247.773 119.648 247.259 119.274 247.352 118.385C247.446 117.497 248.1 117.216 248.707 117.31L257.114 118.339C258.515 118.526 259.449 119.694 259.262 121.05L258.702 125.726C258.562 126.708 258.282 127.409 257.488 127.97C258.141 128.765 258.282 129.466 258.141 130.448L257.581 135.124C257.394 136.527 256.227 137.462 254.872 137.275L246.465 136.246C245.811 136.152 245.297 135.778 245.391 134.89C245.484 134.002 246.138 133.721 246.745 133.815L255.152 134.843L255.619 130.776C255.806 129.42 255.292 128.952 254.592 128.859L249.828 128.298C249.174 128.204 248.66 127.83 248.754 126.942C248.847 126.053 249.501 125.773 250.108 125.866L254.872 126.427C255.573 126.521 256.133 126.147 256.32 124.791L256.787 120.723L248.38 119.694L248.427 119.741Z" fill="#59FF00"/>
<path d="M240.814 173.183C240.16 173.089 239.646 172.715 239.739 171.827C239.833 170.939 240.487 170.658 241.094 170.752L249.501 171.78C250.902 171.967 251.836 173.136 251.649 174.539L251.089 179.214C250.949 180.196 250.669 180.898 249.875 181.459C250.528 182.254 250.669 182.955 250.528 183.937L249.968 188.612C249.781 190.015 248.614 190.95 247.259 190.763L238.852 189.734C238.198 189.641 237.684 189.267 237.778 188.379C237.871 187.49 238.525 187.21 239.132 187.303L247.539 188.332L248.006 184.264C248.193 182.908 247.679 182.441 246.979 182.347L242.215 181.786C241.561 181.692 241.047 181.318 241.141 180.43C241.234 179.542 241.888 179.261 242.495 179.355L247.259 179.916C247.96 180.009 248.52 179.635 248.707 178.279L249.174 174.212L240.767 173.183H240.814Z" fill="white"/>
<path d="M272.247 130.635L273.087 123.575C273.181 122.967 273.508 122.406 274.442 122.5C275.376 122.593 275.609 123.248 275.516 123.856L274.675 130.916C275.329 131.009 275.843 131.383 275.749 132.272C275.656 133.16 275.002 133.441 274.395 133.347L273.788 138.35C273.694 139.145 273.321 139.519 272.433 139.425C271.546 139.332 271.266 138.818 271.359 138.069L271.966 133.067L264.774 132.225L266.175 120.676C266.268 120.069 266.595 119.507 267.529 119.601C268.463 119.694 268.697 120.349 268.603 120.957L267.529 130.074L272.247 130.635Z" fill="#59FF00"/>
<path d="M157.024 208.156L157.865 201.096C157.958 200.488 158.285 199.927 159.219 200.021C160.153 200.114 160.387 200.769 160.293 201.377L159.453 208.437C160.107 208.53 160.62 208.904 160.527 209.793C160.433 210.681 159.78 210.961 159.172 210.868L158.565 215.871C158.472 216.666 158.098 217.04 157.211 216.946C156.323 216.853 156.043 216.338 156.137 215.59L156.744 210.587L149.551 209.746L150.952 198.15C151.046 197.543 151.373 196.982 152.307 197.075C153.241 197.169 153.474 197.823 153.381 198.431L152.307 207.548L157.024 208.109V208.156Z" fill="white"/>
<path d="M286.492 130.261L290.975 130.822C291.769 130.916 292.33 131.103 292.844 131.757C293.451 132.459 293.451 133.067 293.357 133.908L292.75 139.145C292.657 139.893 292.517 140.407 291.956 140.968C291.256 141.623 290.602 141.67 289.714 141.529L284.297 140.875C283.643 140.781 283.316 140.594 282.755 140.22L281.868 139.706C281.261 139.332 280.56 139.005 280.654 138.163C280.747 137.508 281.354 136.994 281.961 137.088C282.241 137.088 282.475 137.228 282.709 137.368L283.409 137.789C283.736 137.976 284.25 138.397 284.623 138.443L290.275 139.098L290.975 133.254L283.783 132.412L285.091 121.705L293.498 122.734C294.151 122.827 294.665 123.201 294.572 124.089C294.478 124.978 293.824 125.258 293.217 125.165L287.239 124.464L286.538 130.308L286.492 130.261Z" fill="#59FF00"/>
<path d="M195.93 210.961L200.413 211.523C201.207 211.616 201.768 211.803 202.282 212.458C202.889 213.159 202.889 213.767 202.795 214.608L202.188 219.845C202.095 220.593 201.955 221.107 201.394 221.669C200.694 222.323 200.04 222.37 199.152 222.23L193.735 221.575C193.081 221.482 192.754 221.294 192.193 220.92L191.306 220.406C190.699 220.032 189.998 219.705 190.092 218.863C190.185 218.209 190.792 217.694 191.399 217.788C191.679 217.788 191.913 217.928 192.147 218.068L192.847 218.489C193.174 218.676 193.688 219.097 194.061 219.144L199.713 219.798L200.413 213.954L193.221 213.112L194.529 202.405L202.936 203.434C203.589 203.527 204.103 203.901 204.01 204.79C203.916 205.678 203.262 205.959 202.655 205.865L196.677 205.164L195.976 211.008L195.93 210.961Z" fill="white"/>
<path d="M235.676 217.32L243.803 218.302C245.017 218.442 245.204 219.003 245.064 220.126L244.41 225.596C244.27 226.765 243.756 227.092 242.635 226.952L233.761 225.877C232.594 225.736 232.22 225.269 232.36 224.147L234.322 207.922C234.368 207.361 234.649 206.707 235.536 206.847L236.984 207.034C237.638 207.128 238.058 207.735 237.965 208.39C237.871 209.138 237.311 209.559 236.61 209.465L235.676 217.367V217.32ZM235.396 219.752L234.929 223.492L242.121 224.334L242.588 220.593L235.396 219.752Z" fill="white"/>
<path d="M146.655 236.724C146.609 237.238 146.048 237.893 145.301 237.799C144.507 237.706 144.18 236.958 144.227 236.443L144.367 235.228C144.413 234.713 144.974 234.059 145.721 234.152L156.557 235.461L155.716 242.522C155.623 243.363 155.623 243.457 154.876 243.971L151.092 246.496C150.392 246.963 150.345 247.01 150.252 247.898L149.691 252.621C149.598 253.416 149.224 253.79 148.337 253.696C147.449 253.603 147.169 253.088 147.263 252.34L147.963 246.449C148.057 245.654 148.103 245.561 148.757 245.093L152.494 242.615C153.381 242.007 153.334 242.007 153.474 240.932L153.895 237.565L146.702 236.724H146.655Z" fill="white"/>
<path d="M195.649 239.202C196.49 239.295 196.817 239.95 196.724 240.558L195.883 247.618C196.63 247.711 197.191 248.039 197.564 248.506C197.938 248.974 198.078 249.628 198.031 250.376L197.331 256.174C197.144 257.67 196.116 258.512 194.622 258.325L187.429 257.483C185.935 257.296 185.094 256.221 185.281 254.772L185.981 248.974C186.075 248.226 186.355 247.618 186.869 247.291C187.336 246.917 187.99 246.73 188.737 246.823L189.578 239.763C189.671 239.108 190.091 238.594 190.932 238.688L195.649 239.249V239.202ZM194.902 255.894L195.603 250.049L188.41 249.208L187.71 255.052L194.902 255.894ZM193.454 247.337L194.155 241.493L191.866 241.212L191.166 247.057L193.454 247.337Z" fill="white"/>
<path d="M237.544 254.538L229.137 253.509C228.437 253.416 227.97 252.761 228.063 252.153L228.81 245.888C228.904 245.233 229.511 244.719 230.165 244.813L239.786 245.981C240.487 246.075 240.954 246.73 240.86 247.337L238.899 263.889C238.805 264.543 238.245 265.058 237.544 264.964L236.33 264.824C235.583 264.73 235.162 264.123 235.256 263.468C235.349 262.72 235.91 262.299 236.61 262.393L237.544 254.538ZM237.825 252.106L238.292 248.319L231.099 247.478L230.632 251.265L237.825 252.106Z" fill="white"/>
<path d="M191.82 276.513C193.174 276.653 194.108 277.916 193.968 279.271L192.287 293.392C192.147 294.748 190.932 295.729 189.578 295.542L182.385 294.701C180.984 294.514 180.097 293.345 180.237 291.989L181.918 277.869C182.058 276.513 183.319 275.578 184.627 275.718L191.82 276.56V276.513ZM189.858 293.064L191.539 278.944L184.347 278.103L182.665 292.223L189.858 293.064Z" fill="white"/>
<path d="M280.046 222.791L276.917 219.378C276.637 219.05 276.31 218.676 276.403 218.255C276.497 217.554 277.057 217.04 277.758 217.086C278.131 217.133 278.458 217.414 278.692 217.648L281.027 220.219L281.447 216.666C281.541 215.871 281.915 215.497 282.802 215.59C283.689 215.684 283.97 216.198 283.876 216.946L283.456 220.5L286.352 218.583C286.632 218.349 287.005 218.209 287.379 218.255C288.08 218.349 288.547 219.003 288.453 219.705C288.407 220.126 288.033 220.453 287.659 220.687L283.783 223.258L286.632 226.391C287.005 226.765 287.519 227.279 287.426 227.84C287.332 228.542 286.772 229.056 286.071 228.962C285.558 228.916 285.184 228.401 284.857 228.027L282.802 225.783L282.382 229.29C282.288 230.085 281.915 230.459 281.027 230.365C280.14 230.272 279.86 229.757 279.953 229.009L280.373 225.502L277.851 227.186C277.431 227.466 276.964 227.84 276.45 227.794C275.749 227.7 275.282 227.045 275.376 226.391C275.422 225.783 276.076 225.456 276.497 225.175L280 222.837L280.046 222.791Z" fill="white"/>
<path d="M232.36 289.792C233.341 289.932 233.761 290.353 233.668 291.475C233.528 292.55 233.014 292.924 232.033 292.784L226.335 292.083C225.354 291.942 224.934 291.522 225.027 290.399C225.167 289.277 225.681 288.95 226.662 289.09L232.36 289.792Z" fill="white"/>
<path d="M149.785 286.612C150.765 286.752 151.186 287.173 151.092 288.295C150.952 289.371 150.439 289.745 149.458 289.604L148.29 289.464C147.309 289.324 146.889 288.903 146.982 287.781C147.122 286.659 147.636 286.332 148.617 286.472L149.785 286.612Z" fill="white"/>
<path d="M276.076 254.818C276.17 254.023 276.543 253.649 277.431 253.743C278.318 253.836 278.598 254.351 278.505 255.099L278.085 258.746L281.681 259.167C282.335 259.26 282.849 259.634 282.755 260.523C282.662 261.411 282.008 261.691 281.401 261.598L277.804 261.177L277.384 264.777C277.291 265.572 276.917 265.946 276.03 265.853C275.142 265.759 274.862 265.245 274.955 264.497L275.376 260.897L271.779 260.476C271.126 260.382 270.612 260.008 270.705 259.12C270.799 258.231 271.453 257.951 272.06 258.044L275.656 258.465L276.076 254.818Z" fill="white"/>
<path d="M266.128 294.28C265.474 294.187 264.96 293.813 265.054 292.924C265.147 292.036 265.801 291.755 266.408 291.849L276.03 293.018C276.684 293.111 277.197 293.485 277.104 294.374C277.011 295.262 276.357 295.542 275.749 295.449L266.128 294.28ZM265.521 299.47C264.867 299.376 264.353 299.002 264.447 298.114C264.54 297.226 265.194 296.945 265.801 297.039L275.423 298.208C276.076 298.301 276.59 298.675 276.497 299.563C276.403 300.452 275.749 300.732 275.142 300.639L265.521 299.47Z" fill="white"/>
<path d="M283.269 179.682C282.709 179.635 282.335 179.588 282.055 179.074C281.821 178.653 281.868 178.42 281.915 177.952L282.101 176.596C282.148 176.129 282.195 175.848 282.522 175.521C282.942 175.1 283.316 175.147 283.829 175.193L285.604 175.427C286.118 175.474 286.538 175.521 286.819 176.035C287.052 176.456 287.005 176.69 286.959 177.157L286.772 178.513C286.725 178.981 286.679 179.261 286.352 179.588C285.931 180.009 285.558 179.963 285.044 179.916L283.269 179.682ZM282.335 191.979C281.915 192.353 280.98 192.306 280.607 191.792C280.233 191.324 280.373 190.436 280.794 190.062L292.003 178.56C292.377 178.139 293.357 178.233 293.731 178.747C294.105 179.214 293.965 180.103 293.544 180.477L282.335 191.979ZM288.78 195.065C288.267 195.018 287.846 194.971 287.566 194.457C287.332 194.036 287.379 193.802 287.426 193.335L287.613 191.979C287.659 191.511 287.706 191.231 288.033 190.903C288.453 190.483 288.827 190.529 289.341 190.576L291.116 190.81C291.629 190.857 292.05 190.903 292.33 191.418C292.563 191.838 292.517 192.072 292.47 192.54L292.283 193.896C292.236 194.363 292.19 194.644 291.863 194.971C291.442 195.392 291.069 195.345 290.555 195.298L288.78 195.065Z" fill="white"/>
<path d="M296.3 14.4942C289.341 18.749 287.099 28.2404 287.099 28.2404C287.099 28.2404 281.447 23.5648 264.727 22.3024C247.773 21.04 286.679 12.8578 286.679 12.8578L296.3 14.4942Z" fill="#9A9FB3"/>
<path d="M222.412 27.5858C222.412 27.5858 240.487 10.7538 264.914 7.10685C289.387 3.41316 316.663 8.7433 316.663 8.7433C316.663 8.7433 294.151 13.3721 282.615 20.9465C274.862 26.0429 268.37 37.4045 268.37 37.4045C268.37 37.4045 257.721 31.6068 246.138 29.082C234.555 26.5572 222.365 27.6326 222.365 27.6326L222.412 27.5858Z" fill="url(#paint29_linear_77_17)"/>
<path d="M282.662 12.811L277.478 16.6918C277.478 16.6918 268.277 11.3616 257.067 10.3798C255.619 10.2395 254.171 10.1927 252.63 10.0992C255.152 9.21086 257.861 8.46277 260.617 7.85495C273.741 8.69655 282.662 12.7643 282.662 12.7643V12.811Z" fill="url(#paint30_linear_77_17)"/>
<path d="M275.703 18.1412L271.312 22.3024C271.312 22.3024 257.908 15.7567 246.652 15.4761C244.317 15.3826 242.121 15.4761 240.113 15.5696C242.121 14.4943 244.223 13.4656 246.465 12.4838C248.52 12.25 250.528 12.1565 252.303 12.2967C264.4 13.2786 275.609 18.1412 275.609 18.1412H275.703Z" fill="url(#paint31_linear_77_17)"/>
<path d="M269.584 24.5935L266.221 28.9418C266.221 28.9418 252.77 22.3492 241.561 22.0687C236.423 21.9752 231.846 22.3025 228.717 22.583C229.838 21.7881 231.146 20.8998 232.547 20.0114C236.563 18.7958 241.468 17.8139 245.671 18.375C257.114 19.9179 269.631 24.6402 269.631 24.6402L269.584 24.5935Z" fill="url(#paint32_linear_77_17)"/>
<path d="M222.752 340.099C222.752 340.099 240.182 363.275 260.105 377.055C268.895 383.143 290.331 393.326 290.331 393.326C290.331 393.326 277.484 429.284 258.95 460.621C240.405 492.024 216.657 504.642 216.657 504.642L176.988 433.203C176.988 433.203 190.511 424.577 201.172 403.933C211.832 383.29 222.763 340.034 222.763 340.034L222.752 340.099Z" fill="url(#paint33_linear_77_17)"/>
<path d="M222.098 364.59C223.177 360.785 223.779 358.809 225.038 354.532C247.068 380.234 259.923 387.449 282.101 398.596C280.543 402.856 279.8 404.874 278.373 408.754C256.676 396.349 244.256 388.94 222.136 364.563L222.098 364.59Z" fill="url(#paint34_linear_77_17)"/>
<path d="M217.876 379.458C218.817 376.266 219.272 374.567 220.269 371.049C242.401 394.557 254.555 402.155 275.837 415.429C274.417 419.075 273.756 420.806 272.341 424.219C251.654 409.605 239.984 401.721 217.876 379.458Z" fill="url(#paint35_linear_77_17)"/>
<path d="M213.876 392.218C214.854 389.401 215.33 387.974 216.25 384.913C238.257 406.388 249.622 414.489 269.845 430.063C268.426 433.307 267.656 434.885 266.128 437.977C246.615 420.982 235.771 412.568 213.876 392.218Z" fill="url(#paint36_linear_77_17)"/>
<path d="M209.091 403.873C210.384 401.177 210.941 399.864 212.039 397.134C233.796 416.723 244.285 425.446 263.297 443.428C261.638 446.498 260.75 447.989 258.896 451.026C240.616 431.492 230.659 422.391 209.102 403.807L209.091 403.873Z" fill="url(#paint37_linear_77_17)"/>
<path d="M202.536 415.293C204.334 412.583 205.163 411.249 206.652 408.586C228.124 426.484 237.673 435.818 255.429 456.469C253.369 459.538 252.235 461.088 249.855 464.269C232.868 442.039 223.798 432.251 202.536 415.293Z" fill="url(#paint38_linear_77_17)"/>
<path d="M440.386 312.655C440.386 312.655 452.717 320.37 460.143 329.347C463.412 333.321 469.017 342.999 469.017 342.999C469.017 342.999 487.606 336.687 503.766 327.804C519.926 318.92 526.184 307.886 526.184 307.886L488.4 290.54C488.4 290.54 484.056 296.852 473.454 301.948C462.805 307.091 440.386 312.608 440.386 312.608V312.655Z" fill="url(#paint39_linear_77_17)"/>
<path d="M481.814 324.624C479.806 325.56 479.339 325.793 477.33 326.588C469.204 315.741 468.176 314.385 461.264 309.242C463.039 308.681 463.879 308.4 465.467 307.886C471.959 313.076 474.435 315.04 481.814 324.624Z" fill="url(#paint40_linear_77_17)"/>
<path d="M496.573 328.412C494.565 329.581 493.584 330.142 491.529 331.17C483.122 320.65 478.545 315.694 468.176 306.951C469.671 306.437 470.371 306.156 471.726 305.595C482.468 314.011 487.466 318.546 496.573 328.365V328.412Z" fill="url(#paint41_linear_77_17)"/>
<path d="M504.933 323.035C503.018 324.391 502.084 325.045 500.076 326.261C490.408 316.956 485.084 312.748 474.061 304.613C475.369 304.052 475.976 303.725 477.19 303.07C488.633 310.785 494.425 314.478 504.933 322.988V323.035Z" fill="url(#paint42_linear_77_17)"/>
<path d="M512.687 317.05C510.958 318.546 510.071 319.248 508.25 320.65C497.18 312.702 491.109 309.335 479.339 301.901C480.553 301.153 481.114 300.779 482.328 299.891C494.425 306.904 500.963 309.803 512.687 317.003V317.05Z" fill="url(#paint43_linear_77_17)"/>
<path d="M519.506 310.551C518.011 312.094 517.264 312.889 515.629 314.385C503.439 307.652 496.713 305.081 484.43 298.254C485.644 297.272 486.251 296.758 487.512 295.542C499.889 302.135 506.895 304.333 519.506 310.504V310.551Z" fill="url(#paint44_linear_77_17)"/>
<path d="M399.472 0C399.472 0 393.12 12.811 391.532 24.3597C390.832 29.4561 391.112 40.6774 391.112 40.6774C391.112 40.6774 372.29 44.3711 354.215 44.6049C336.14 44.8387 325.164 38.3396 325.164 38.3396L347.863 4.48854C347.863 4.48854 354.728 7.85495 366.265 7.0601C377.801 6.26526 399.426 0 399.426 0L399.472 0Z" fill="url(#paint45_linear_77_17)"/>
<path d="M370.935 30.999C373.13 30.812 373.644 30.812 375.699 30.4847C376.914 17.0191 377.054 15.2891 380.23 7.38739C378.455 7.76144 377.614 7.94846 375.979 8.27575C373.177 15.9904 372.15 18.936 370.889 30.999H370.935Z" fill="url(#paint46_linear_77_17)"/>
<path d="M360.52 41.6125C362.809 41.6125 363.929 41.6125 366.171 41.519C367.806 28.1937 369.067 21.6011 373.271 8.83682C371.776 9.11736 371.029 9.21087 369.627 9.44465C365.004 22.1154 363.135 28.5209 360.567 41.6125H360.52Z" fill="url(#paint47_linear_77_17)"/>
<path d="M350.758 41.0514C353.047 41.2852 354.168 41.3787 356.457 41.4722C359.773 28.5677 362.061 22.2557 367.105 9.72516C365.751 9.86543 365.05 9.91218 363.696 9.91218C358.091 22.3492 355.149 28.4274 350.758 41.0514Z" fill="url(#paint48_linear_77_17)"/>
<path d="M341.184 39.6488C343.379 40.0696 344.5 40.2566 346.788 40.5839C351.926 28.1469 355.289 22.2089 361.314 9.91219C359.913 9.91219 359.259 9.81868 357.811 9.63165C351.272 21.7881 347.349 27.4923 341.184 39.6488Z" fill="url(#paint49_linear_77_17)"/>
<path d="M332.123 37.3578C334.178 38.0123 335.206 38.2929 337.354 38.8072C344.08 26.8845 348.423 21.3206 355.196 9.25761C353.654 8.97708 352.86 8.83681 351.226 8.46277C344.266 20.3387 339.502 25.7156 332.17 37.3578H332.123Z" fill="url(#paint50_linear_77_17)"/>
</g>
<defs>
<filter id="filter0_d_77_17" x="239" y="365" width="179.44" height="168.997" filterUnits="userSpaceOnUse" color-interpolation-filters="sRGB">
<feFlood flood-opacity="0" result="BackgroundImageFix"/>
<feColorMatrix in="SourceAlpha" type="matrix" values="0 0 0 0 0 0 0 0 0 0 0 0 0 0 0 0 0 0 127 0" result="hardAlpha"/>
<feOffset dy="6"/>
<feGaussianBlur stdDeviation="12"/>
<feComposite in2="hardAlpha" operator="out"/>
<feColorMatrix type="matrix" values="0 0 0 0 0 0 0 0 0 0 0 0 0 0 0 0 0 0 0.25 0"/>
<feBlend mode="normal" in2="BackgroundImageFix" result="effect1_dropShadow_77_17"/>
<feBlend mode="normal" in="SourceGraphic" in2="effect1_dropShadow_77_17" result="shape"/>
</filter>
<radialGradient id="paint0_radial_77_17" cx="0" cy="0" r="1" gradientUnits="userSpaceOnUse" gradientTransform="translate(238.17 516.58) scale(238.161 34.2724)">
<stop stop-color="#BFC4DB"/>
<stop offset="0.04" stop-color="#C4C8DD"/>
<stop offset="0.26" stop-color="#DDE0EC"/>
<stop offset="0.49" stop-color="#F0F1F6"/>
<stop offset="0.73" stop-color="#FBFBFC"/>
<stop offset="1" stop-color="white"/>
</radialGradient>
<linearGradient id="paint1_linear_77_17" x1="420.952" y1="288.671" x2="518.595" y2="175.83" gradientUnits="userSpaceOnUse">
<stop stop-color="#996B25"/>
<stop offset="0.23" stop-color="#C29C5C"/>
<stop offset="0.24" stop-color="#C39C5A"/>
<stop offset="0.46" stop-color="#D5A148"/>
<stop offset="0.68" stop-color="#DFAF5B"/>
<stop offset="0.75" stop-color="#E3B462"/>
<stop offset="1" stop-color="#D6A44D"/>
</linearGradient>
<linearGradient id="paint2_linear_77_17" x1="375.345" y1="193.275" x2="505.656" y2="220.56" gradientUnits="userSpaceOnUse">
<stop stop-color="#F2DA8F"/>
<stop offset="0.18" stop-color="#ECD086"/>
<stop offset="0.33" stop-color="#FFE59E"/>
<stop offset="0.48" stop-color="#FFE7A8"/>
<stop offset="0.7" stop-color="#FFEAB5"/>
<stop offset="0.74" stop-color="#FCE2A2"/>
<stop offset="0.8" stop-color="#FBDB90"/>
<stop offset="0.91" stop-color="#F9D787"/>
<stop offset="1" stop-color="#F5D284"/>
</linearGradient>
<linearGradient id="paint3_linear_77_17" x1="393.329" y1="258.959" x2="485.193" y2="152.797" gradientUnits="userSpaceOnUse">
<stop stop-color="#EBD38B"/>
<stop offset="0.35" stop-color="#ECCF85"/>
<stop offset="1" stop-color="#EDCC80"/>
</linearGradient>
<linearGradient id="paint4_linear_77_17" x1="404.101" y1="248.116" x2="476.103" y2="164.878" gradientUnits="userSpaceOnUse">
<stop stop-color="#F2DA8F"/>
<stop offset="0.18" stop-color="#ECD086"/>
<stop offset="0.33" stop-color="#FFE59E"/>
<stop offset="0.48" stop-color="#FFE7A8"/>
<stop offset="0.7" stop-color="#FFEAB5"/>
<stop offset="0.74" stop-color="#FCE2A2"/>
<stop offset="0.8" stop-color="#FBDB90"/>
<stop offset="0.91" stop-color="#F9D787"/>
<stop offset="1" stop-color="#F5D284"/>
</linearGradient>
<linearGradient id="paint5_linear_77_17" x1="407.006" y1="245.764" x2="474.131" y2="168.193" gradientUnits="userSpaceOnUse">
<stop stop-color="#E6B35C"/>
<stop offset="0.53" stop-color="#DAA74E"/>
<stop offset="1" stop-color="#D6A349"/>
</linearGradient>
<linearGradient id="paint6_linear_77_17" x1="408.94" y1="245.027" x2="473.648" y2="170.247" gradientUnits="userSpaceOnUse">
<stop stop-color="#EBD38B"/>
<stop offset="0.35" stop-color="#ECCF85"/>
<stop offset="1" stop-color="#EDCC80"/>
</linearGradient>
<linearGradient id="paint7_linear_77_17" x1="373.969" y1="197.585" x2="507.061" y2="216.297" gradientUnits="userSpaceOnUse">
<stop offset="0.4" stop-color="#85744B"/>
<stop offset="0.48" stop-color="#A38F5C"/>
<stop offset="0.57" stop-color="#C0B18D"/>
<stop offset="0.62" stop-color="#CDC1A4"/>
<stop offset="0.65" stop-color="#E1D8C5"/>
<stop offset="0.67" stop-color="#EDE6D9"/>
<stop offset="0.69" stop-color="#F2ECE1"/>
<stop offset="0.7" stop-color="#F2ECE1"/>
<stop offset="1" stop-color="#FFF6E2"/>
</linearGradient>
<linearGradient id="paint8_linear_77_17" x1="169.307" y1="101.936" x2="411.301" y2="439.362" gradientUnits="userSpaceOnUse">
<stop stop-color="#C4C2C3"/>
<stop offset="1" stop-color="#E5E2E3"/>
</linearGradient>
<linearGradient id="paint9_linear_77_17" x1="174.536" y1="103.839" x2="413.787" y2="432.462" gradientUnits="userSpaceOnUse">
<stop stop-color="#D1D6F0"/>
<stop offset="0.17" stop-color="#D8DCF2"/>
<stop offset="0.63" stop-color="#E7EAF8"/>
<stop offset="1" stop-color="#EDEFFA"/>
</linearGradient>
<linearGradient id="paint10_linear_77_17" x1="140.63" y1="355.109" x2="160.247" y2="355.109" gradientUnits="userSpaceOnUse">
<stop stop-color="#5C6582"/>
<stop offset="1" stop-color="#575F7A"/>
</linearGradient>
<linearGradient id="paint11_linear_77_17" x1="447.392" y1="117.263" x2="467.009" y2="117.263" gradientUnits="userSpaceOnUse">
<stop stop-color="#5C6582"/>
<stop offset="1" stop-color="#575F7A"/>
</linearGradient>
<linearGradient id="paint12_linear_77_17" x1="183.319" y1="70.3672" x2="201.955" y2="70.3672" gradientUnits="userSpaceOnUse">
<stop stop-color="#5C6582"/>
<stop offset="1" stop-color="#575F7A"/>
</linearGradient>
<linearGradient id="paint13_linear_77_17" x1="419.789" y1="351.135" x2="438.378" y2="351.135" gradientUnits="userSpaceOnUse">
<stop stop-color="#5C6582"/>
<stop offset="1" stop-color="#575F7A"/>
</linearGradient>
<linearGradient id="paint14_linear_77_17" x1="426.048" y1="323.315" x2="435.856" y2="323.315" gradientUnits="userSpaceOnUse">
<stop stop-color="#5C6582"/>
<stop offset="1" stop-color="#575F7A"/>
</linearGradient>
<linearGradient id="paint15_linear_77_17" x1="160.247" y1="73.4064" x2="170.055" y2="73.4064" gradientUnits="userSpaceOnUse">
<stop stop-color="#5C6582"/>
<stop offset="1" stop-color="#575F7A"/>
</linearGradient>
<linearGradient id="paint16_linear_77_17" x1="197.891" y1="44.6517" x2="207.699" y2="44.6517" gradientUnits="userSpaceOnUse">
<stop stop-color="#5C6582"/>
<stop offset="1" stop-color="#575F7A"/>
</linearGradient>
<linearGradient id="paint17_linear_77_17" x1="122.976" y1="378.58" x2="132.784" y2="378.58" gradientUnits="userSpaceOnUse">
<stop stop-color="#5C6582"/>
<stop offset="1" stop-color="#575F7A"/>
</linearGradient>
<linearGradient id="paint18_linear_77_17" x1="418.762" y1="376.851" x2="435.856" y2="376.851" gradientUnits="userSpaceOnUse">
<stop stop-color="#5C6582"/>
<stop offset="1" stop-color="#575F7A"/>
</linearGradient>
<linearGradient id="paint19_linear_77_17" x1="450.942" y1="90.5657" x2="468.036" y2="90.5657" gradientUnits="userSpaceOnUse">
<stop stop-color="#5C6582"/>
<stop offset="1" stop-color="#575F7A"/>
</linearGradient>
<linearGradient id="paint20_linear_77_17" x1="118.352" y1="337.903" x2="135.399" y2="337.903" gradientUnits="userSpaceOnUse">
<stop stop-color="#5C6582"/>
<stop offset="1" stop-color="#575F7A"/>
</linearGradient>
<linearGradient id="paint21_linear_77_17" x1="156.995" y1="335.211" x2="320.225" y2="109.433" gradientUnits="userSpaceOnUse">
<stop stop-color="#F0F5FF"/>
<stop offset="0.07" stop-color="#ECE9D2"/>
<stop offset="0.22" stop-color="#E8E7CA"/>
<stop offset="0.31" stop-color="#EDECD1"/>
<stop offset="0.39" stop-color="#E5E6CC"/>
<stop offset="0.88" stop-color="#F2F6FF"/>
<stop offset="1" stop-color="white"/>
</linearGradient>
<linearGradient id="paint22_linear_77_17" x1="320.768" y1="168.188" x2="333.041" y2="109.785" gradientUnits="userSpaceOnUse">
<stop stop-color="#2D5780"/>
<stop offset="1" stop-color="#CBD0E1"/>
</linearGradient>
<linearGradient id="paint23_linear_77_17" x1="159.5" y1="108.5" x2="310.5" y2="140" gradientUnits="userSpaceOnUse">
<stop stop-color="#535A74" stop-opacity="0"/>
<stop offset="1" stop-color="#535A74"/>
</linearGradient>
<linearGradient id="paint24_linear_77_17" x1="165.247" y1="79.4971" x2="303.389" y2="182.874" gradientUnits="userSpaceOnUse">
<stop stop-color="#7595B4"/>
<stop offset="1" stop-color="#23578B"/>
</linearGradient>
<linearGradient id="paint25_linear_77_17" x1="140.498" y1="106.629" x2="301.306" y2="312.264" gradientUnits="userSpaceOnUse">
<stop stop-color="#B39DAB"/>
<stop offset="0.3" stop-color="#787777"/>
<stop offset="0.35" stop-color="#4E474C"/>
<stop offset="0.39" stop-color="#342A31"/>
<stop offset="0.42" stop-color="#2B1F27"/>
<stop offset="0.59" stop-color="#191217"/>
<stop offset="0.83" stop-color="#060406"/>
<stop offset="1"/>
</linearGradient>
<linearGradient id="paint26_linear_77_17" x1="391.098" y1="408.455" x2="370.733" y2="385.917" gradientUnits="userSpaceOnUse">
<stop stop-color="#FFF7FC"/>
<stop offset="0.08" stop-color="#FFC9EA"/>
<stop offset="0.17" stop-color="#FF47B7"/>
<stop offset="0.52" stop-color="#FF78CA"/>
<stop offset="0.73" stop-color="#FFA3DB"/>
<stop offset="0.92" stop-color="#FF78CA"/>
<stop offset="0.97" stop-color="#FFE8F6"/>
</linearGradient>
<linearGradient id="paint27_linear_77_17" x1="383.847" y1="420.928" x2="357.591" y2="391.871" gradientUnits="userSpaceOnUse">
<stop stop-color="#FBFAFF"/>
<stop offset="0.11" stop-color="#A79EBC"/>
<stop offset="0.17" stop-color="#938AA6"/>
<stop offset="0.25" stop-color="#7B728B"/>
<stop offset="0.3" stop-color="#726A82"/>
<stop offset="0.42" stop-color="#898299"/>
<stop offset="0.68" stop-color="#C7C0D7"/>
<stop offset="0.69" stop-color="#C9C2D9"/>
<stop offset="0.74" stop-color="#D1CBDF"/>
<stop offset="0.83" stop-color="#E8E5EF"/>
<stop offset="0.9" stop-color="white"/>
<stop offset="1" stop-color="white"/>
</linearGradient>
<linearGradient id="paint28_linear_77_17" x1="376.342" y1="427.544" x2="350.082" y2="398.492" gradientUnits="userSpaceOnUse">
<stop stop-color="#FBFAFF"/>
<stop offset="0.11" stop-color="#A79EBC"/>
<stop offset="0.17" stop-color="#938AA6"/>
<stop offset="0.25" stop-color="#7B728B"/>
<stop offset="0.3" stop-color="#726A82"/>
<stop offset="0.42" stop-color="#898299"/>
<stop offset="0.68" stop-color="#C7C0D7"/>
<stop offset="0.69" stop-color="#C9C2D9"/>
<stop offset="0.74" stop-color="#D1CBDF"/>
<stop offset="0.83" stop-color="#E8E5EF"/>
<stop offset="0.9" stop-color="white"/>
<stop offset="1" stop-color="white"/>
</linearGradient>
<linearGradient id="paint29_linear_77_17" x1="262.49" y1="9.29161" x2="283.086" y2="35.1534" gradientUnits="userSpaceOnUse">
<stop stop-color="#FBFDFF"/>
<stop offset="1" stop-color="white"/>
</linearGradient>
<linearGradient id="paint30_linear_77_17" x1="255.69" y1="3.35278" x2="278.767" y2="18.9185" gradientUnits="userSpaceOnUse">
<stop stop-color="#718AB8"/>
<stop offset="1" stop-color="#7D8DAD"/>
</linearGradient>
<linearGradient id="paint31_linear_77_17" x1="250.363" y1="11.7428" x2="271.687" y2="26.1269" gradientUnits="userSpaceOnUse">
<stop stop-color="#718AB8"/>
<stop offset="1" stop-color="#7D8DAD"/>
</linearGradient>
<linearGradient id="paint32_linear_77_17" x1="244.368" y1="20.3734" x2="265.06" y2="34.3452" gradientUnits="userSpaceOnUse">
<stop stop-color="#718AB8"/>
<stop offset="1" stop-color="#7D8DAD"/>
</linearGradient>
<linearGradient id="paint33_linear_77_17" x1="194.996" y1="493.115" x2="271.955" y2="339.965" gradientUnits="userSpaceOnUse">
<stop stop-color="#FBFDFF"/>
<stop offset="1" stop-color="white"/>
</linearGradient>
<linearGradient id="paint34_linear_77_17" x1="218.007" y1="428.735" x2="253.577" y2="379.454" gradientUnits="userSpaceOnUse">
<stop stop-color="#718AB8"/>
<stop offset="1" stop-color="#7D8DAD"/>
</linearGradient>
<linearGradient id="paint35_linear_77_17" x1="222.027" y1="431.675" x2="257.598" y2="382.328" gradientUnits="userSpaceOnUse">
<stop stop-color="#718AB8"/>
<stop offset="1" stop-color="#7D8DAD"/>
</linearGradient>
<linearGradient id="paint36_linear_77_17" x1="225.23" y1="433.975" x2="260.801" y2="384.628" gradientUnits="userSpaceOnUse">
<stop stop-color="#718AB8"/>
<stop offset="1" stop-color="#7D8DAD"/>
</linearGradient>
<linearGradient id="paint37_linear_77_17" x1="227.42" y1="435.563" x2="263.023" y2="386.25" gradientUnits="userSpaceOnUse">
<stop stop-color="#718AB8"/>
<stop offset="1" stop-color="#7D8DAD"/>
</linearGradient>
<linearGradient id="paint38_linear_77_17" x1="228.565" y1="436.342" x2="264.135" y2="387.061" gradientUnits="userSpaceOnUse">
<stop stop-color="#718AB8"/>
<stop offset="1" stop-color="#7D8DAD"/>
</linearGradient>
<linearGradient id="paint39_linear_77_17" x1="461.731" y1="328.786" x2="518.009" y2="285.408" gradientUnits="userSpaceOnUse">
<stop stop-color="#FBFDFF"/>
<stop offset="1" stop-color="white"/>
</linearGradient>
<linearGradient id="paint40_linear_77_17" x1="471.913" y1="316.723" x2="501.919" y2="295.853" gradientUnits="userSpaceOnUse">
<stop stop-color="#718AB8"/>
<stop offset="1" stop-color="#7D8DAD"/>
</linearGradient>
<linearGradient id="paint41_linear_77_17" x1="475.789" y1="322.287" x2="505.795" y2="301.464" gradientUnits="userSpaceOnUse">
<stop stop-color="#718AB8"/>
<stop offset="1" stop-color="#7D8DAD"/>
</linearGradient>
<linearGradient id="paint42_linear_77_17" x1="476.303" y1="323.035" x2="506.309" y2="302.165" gradientUnits="userSpaceOnUse">
<stop stop-color="#718AB8"/>
<stop offset="1" stop-color="#7D8DAD"/>
</linearGradient>
<linearGradient id="paint43_linear_77_17" x1="476.49" y1="323.315" x2="506.496" y2="302.446" gradientUnits="userSpaceOnUse">
<stop stop-color="#718AB8"/>
<stop offset="1" stop-color="#7D8DAD"/>
</linearGradient>
<linearGradient id="paint44_linear_77_17" x1="476.069" y1="322.707" x2="506.122" y2="301.885" gradientUnits="userSpaceOnUse">
<stop stop-color="#718AB8"/>
<stop offset="1" stop-color="#7D8DAD"/>
</linearGradient>
<linearGradient id="paint45_linear_77_17" x1="386.535" y1="19.7821" x2="316.859" y2="12.4716" gradientUnits="userSpaceOnUse">
<stop stop-color="#FBFDFF"/>
<stop offset="1" stop-color="white"/>
</linearGradient>
<linearGradient id="paint46_linear_77_17" x1="371.834" y1="14.354" x2="335.88" y2="12.3261" gradientUnits="userSpaceOnUse">
<stop stop-color="#718AB8"/>
<stop offset="1" stop-color="#7D8DAD"/>
</linearGradient>
<linearGradient id="paint47_linear_77_17" x1="371.482" y1="21.1129" x2="335.527" y2="19.085" gradientUnits="userSpaceOnUse">
<stop stop-color="#718AB8"/>
<stop offset="1" stop-color="#7D8DAD"/>
</linearGradient>
<linearGradient id="paint48_linear_77_17" x1="371.41" y1="22.0025" x2="335.482" y2="20.0143" gradientUnits="userSpaceOnUse">
<stop stop-color="#718AB8"/>
<stop offset="1" stop-color="#7D8DAD"/>
</linearGradient>
<linearGradient id="paint49_linear_77_17" x1="371.372" y1="22.3069" x2="335.444" y2="20.3188" gradientUnits="userSpaceOnUse">
<stop stop-color="#718AB8"/>
<stop offset="1" stop-color="#7D8DAD"/>
</linearGradient>
<linearGradient id="paint50_linear_77_17" x1="371.422" y1="21.6561" x2="335.507" y2="19.6038" gradientUnits="userSpaceOnUse">
<stop stop-color="#718AB8"/>
<stop offset="1" stop-color="#7D8DAD"/>
</linearGradient>
<clipPath id="clip0_77_17">
<rect width="633" height="557" fill="white"/>
</clipPath>
</defs>
</svg>
