<svg width="28" height="28" viewBox="0 0 28 28" fill="none" xmlns="http://www.w3.org/2000/svg">
<g clip-path="url(#clip0_7_29)">
<path d="M23.3335 17.1112C23.3335 21.4045 18.1069 24.8889 11.6669 24.8889C11.2305 24.8915 10.7943 24.8708 10.3602 24.8267C9.9713 24.8112 9.58242 24.7645 9.20908 24.7178L8.69575 24.6245L5.77131 27.5489C5.47707 27.8391 5.0801 28.0013 4.66686 28.0001C4.25618 27.994 3.86401 27.8282 3.57358 27.5378C3.28315 27.2474 3.11733 26.8552 3.11131 26.4445L3.09575 22.3845C2.67655 22.0899 2.28594 21.7566 1.92908 21.3889C0.950391 20.4569 0.296175 19.2357 0.0624173 17.9045C0.018555 17.6424 -0.00226534 17.3769 0.000195054 17.1112V17.0645C0.0313062 13.0978 4.51131 9.84672 10.2824 9.39561H10.298C10.7529 9.35127 11.2098 9.3305 11.6669 9.33339C18.1069 9.33339 23.3335 12.8178 23.3335 17.1112ZM28.0002 3.88895C27.9637 4.39307 27.8024 4.88019 27.5308 5.3065C27.2593 5.73281 26.886 6.08493 26.4446 6.33117V8.55561C26.4428 8.70093 26.4013 8.84297 26.3245 8.96636C26.2477 9.08974 26.1386 9.18977 26.0091 9.25561C25.9017 9.30513 25.7851 9.33162 25.6669 9.33339C25.498 9.33674 25.3332 9.2818 25.2002 9.17784L23.1469 7.59117H23.1313C22.428 7.71767 21.7147 7.78015 21.0002 7.77784C17.1269 7.77784 14.0002 6.03561 14.0002 3.88895C14.0002 2.30228 15.6957 0.948947 18.138 0.34228C19.0745 0.111974 20.0357 -0.0029531 21.0002 5.76498e-05C24.6246 5.76498e-05 27.6113 1.5245 27.9691 3.4845C27.9872 3.61861 27.9976 3.75365 28.0002 3.88895Z" fill="white"/>
</g>
<defs>
<clipPath id="clip0_7_29">
<rect width="28" height="28" fill="white"/>
</clipPath>
</defs>
</svg>
