<svg width="28" height="28" viewBox="0 0 28 28" fill="none" xmlns="http://www.w3.org/2000/svg">
<g clip-path="url(#clip0_7_20)">
<path fill-rule="evenodd" clip-rule="evenodd" d="M18.2109 2.66311L11.9887 8.88533L6.87401 14L8.88068 16.0067C9.09652 16.2254 9.24274 16.5032 9.30088 16.805C9.35901 17.1067 9.32647 17.4189 9.20734 17.7022C9.09302 17.9876 8.89564 18.2322 8.64076 18.4041C8.38588 18.5761 8.08525 18.6675 7.77779 18.6667H1.55557C1.14301 18.6667 0.747346 18.5028 0.455623 18.2111C0.1639 17.9193 1.11799e-05 17.5237 1.11799e-05 17.1111V10.8889C-0.00116289 10.5812 0.0901597 10.2802 0.262133 10.025C0.434106 9.76982 0.678794 9.5722 0.964456 9.45778C1.24774 9.33866 1.55996 9.30611 1.86172 9.36425C2.16348 9.42239 2.44126 9.5686 2.66001 9.78445L4.66668 11.7927L9.7829 6.67645L16.0051 0.454225C16.298 0.16172 16.6952 -0.00244283 17.1091 -0.0021511C17.5231 -0.00185937 17.92 0.162863 18.2125 0.45578C18.505 0.748697 18.6691 1.14581 18.6688 1.55977C18.6685 1.97372 18.5038 2.37061 18.2109 2.66311ZM9.78912 25.3369L16.0113 19.1147L21.126 14L19.1193 11.9933C18.9035 11.7746 18.7573 11.4968 18.6991 11.195C18.641 10.8933 18.6736 10.5811 18.7927 10.2978C18.907 10.0124 19.1044 9.76785 19.3593 9.59589C19.6141 9.42394 19.9148 9.33247 20.2222 9.33333H26.4445C26.857 9.33333 27.2527 9.49722 27.5444 9.78895C27.8361 10.0807 28 10.4763 28 10.8889V17.1111C28.0012 17.4188 27.9099 17.7198 27.7379 17.975C27.5659 18.2302 27.3212 18.4278 27.0356 18.5422C26.7523 18.6613 26.4401 18.6939 26.1383 18.6358C25.8365 18.5776 25.5588 18.4314 25.34 18.2156L23.3333 16.2073L18.2171 21.3236L11.9949 27.5458C11.8499 27.6906 11.6777 27.8055 11.4883 27.8838C11.2989 27.9621 11.0959 28.0023 10.8909 28.0022C10.6859 28.002 10.483 27.9615 10.2937 27.8829C10.1044 27.8044 9.9324 27.6893 9.78757 27.5442C9.64273 27.3992 9.52788 27.227 9.44958 27.0376C9.37127 26.8482 9.33105 26.6452 9.33119 26.4402C9.33133 26.2353 9.37185 26.0323 9.45042 25.843C9.52899 25.6537 9.64408 25.4817 9.78912 25.3369Z" fill="white"/>
</g>
<defs>
<clipPath id="clip0_7_20">
<rect width="28" height="28" fill="white"/>
</clipPath>
</defs>
</svg>
