<svg width="28" height="28" viewBox="0 0 28 28" fill="none" xmlns="http://www.w3.org/2000/svg">
<g clip-path="url(#clip0_7_2)">
<path fill-rule="evenodd" clip-rule="evenodd" d="M24.8889 11.1751C24.8889 4.88444 20.0044 0 14 0C7.99556 0 3.11111 4.88444 3.11111 10.8889C1.302 11.8176 2.86102e-06 13.5271 2.86102e-06 15.5556V18.6667C2.86102e-06 19.9043 0.491668 21.0913 1.36684 21.9665C2.24201 22.8417 3.42899 23.3333 4.66667 23.3333H6.22223C6.63478 23.3333 7.03045 23.1694 7.32217 22.8777C7.61389 22.586 7.77778 22.1903 7.77778 21.7778V12.4444C7.77778 12.0319 7.61389 11.6362 7.32217 11.3445C7.03045 11.0528 6.63478 10.8889 6.22223 10.8889C6.22223 8.82609 7.04167 6.84779 8.50028 5.38917C9.9589 3.93055 11.9372 3.11111 14 3.11111C16.0628 3.11111 18.0411 3.93055 19.4997 5.38917C20.9583 6.84779 21.7778 8.82609 21.7778 10.8889C21.3652 10.8889 20.9696 11.0528 20.6778 11.3445C20.3861 11.6362 20.2222 12.0319 20.2222 12.4444V21.7778C20.2222 22.1903 20.3861 22.586 20.6778 22.8777C20.9696 23.1694 21.3652 23.3333 21.7778 23.3333V24.8889H17.7458C17.4253 23.9851 16.5698 23.3333 15.5556 23.3333H12.4444C11.8256 23.3333 11.2321 23.5792 10.7945 24.0168C10.3569 24.4543 10.1111 25.0478 10.1111 25.6667C10.1111 26.2855 10.3569 26.879 10.7945 27.3166C11.2321 27.7542 11.8256 28 12.4444 28H21.7778C22.6029 28 23.3942 27.6722 23.9777 27.0888C24.5611 26.5053 24.8889 25.714 24.8889 24.8889V23.0487C25.7969 22.7296 26.5836 22.1368 27.1408 21.3521C27.698 20.5673 27.9981 19.6291 28 18.6667V15.5556C27.9983 14.5933 27.6981 13.6552 27.1409 12.8707C26.5837 12.0861 25.7969 11.4937 24.8889 11.1751L-10.8889 96.4444L24.8889 11.1751Z" fill="white"/>
</g>
<defs>
<clipPath id="clip0_7_2">
<rect width="28" height="28" fill="white"/>
</clipPath>
</defs>
</svg>
