<svg width="28" height="28" viewBox="0 0 28 28" fill="none" xmlns="http://www.w3.org/2000/svg">
<g clip-path="url(#clip0_7_23)">
<path d="M20.7402 7.25978C20.4491 6.96884 20.2182 6.6234 20.0606 6.24319C19.9031 5.86298 19.822 5.45545 19.822 5.04389C19.822 4.63233 19.9031 4.2248 20.0606 3.84459C20.2182 3.46438 20.4491 3.11894 20.7402 2.828L23.3566 0.211556C22.2973 -0.0746372 21.1812 -0.0762541 20.1211 0.206868C19.0609 0.489991 18.0943 1.04783 17.3187 1.82405C16.5431 2.60028 15.986 3.56741 15.7038 4.62778C15.4215 5.68816 15.424 6.80424 15.7111 7.86333L7.88509 15.6847C6.55245 15.3276 5.13923 15.4203 3.86461 15.9482C2.58998 16.4762 1.52519 17.41 0.835379 18.6048C0.145563 19.7997 -0.130728 21.1887 0.0493571 22.5565C0.229442 23.9244 0.855838 25.1946 1.8314 26.1701C2.80695 27.1457 4.07715 27.7721 5.445 27.9522C6.81284 28.1323 8.20189 27.856 9.3967 27.1662C10.5915 26.4763 11.5253 25.4116 12.0533 24.1369C12.5813 22.8623 12.6739 21.4491 12.3169 20.1164L20.1366 12.2889C21.1961 12.576 22.3126 12.5784 23.3733 12.2958C24.4339 12.0132 25.4012 11.4556 26.1774 10.6794C26.9536 9.90325 27.5111 8.93596 27.7937 7.87528C28.0763 6.81461 28.074 5.69813 27.7869 4.63867L25.1704 7.25978C24.5829 7.8472 23.7861 8.1772 22.9553 8.1772C22.1245 8.1772 21.3277 7.8472 20.7402 7.25978ZM8.39998 24.0364C7.96177 24.4744 7.40354 24.7726 6.79587 24.8934C6.18819 25.0141 5.55836 24.952 4.986 24.7148C4.41364 24.4776 3.92445 24.0761 3.58028 23.5609C3.23611 23.0458 3.05241 22.4401 3.05241 21.8206C3.05241 21.201 3.23611 20.5954 3.58028 20.0802C3.92445 19.565 4.41364 19.1635 4.986 18.9263C5.55836 18.6891 6.18819 18.627 6.79587 18.7477C7.40354 18.8685 7.96177 19.1667 8.39998 19.6047C8.69108 19.8956 8.922 20.241 9.07955 20.6213C9.23709 21.0015 9.31819 21.409 9.31819 21.8206C9.31819 22.2321 9.23709 22.6396 9.07955 23.0199C8.922 23.4001 8.69108 23.7455 8.39998 24.0364Z" fill="white"/>
</g>
<defs>
<clipPath id="clip0_7_23">
<rect width="28" height="28" fill="white"/>
</clipPath>
</defs>
</svg>
