<svg width="28" height="28" viewBox="0 0 28 28" fill="none" xmlns="http://www.w3.org/2000/svg">
<g clip-path="url(#clip0_7_14)">
<path d="M24.8889 3.11111H3.11111C2.28675 3.11357 1.49686 3.44214 0.913943 4.02505C0.331029 4.60797 0.00246202 5.39786 0 6.22222L0 18.6667C0.0186355 19.4596 0.33151 20.2172 0.877775 20.7922C1.42404 21.3672 2.16465 21.7185 2.95556 21.7778H11.3556L6.84444 25.2C6.59137 25.3958 6.40894 25.6687 6.32474 25.9775C6.24054 26.2862 6.25916 26.6139 6.37778 26.9111C6.46412 27.2184 6.64666 27.4899 6.89862 27.6859C7.15057 27.8819 7.45869 27.9919 7.77778 28H20.2222C20.5413 27.9919 20.8494 27.8819 21.1014 27.6859C21.3533 27.4899 21.5359 27.2184 21.6222 26.9111C21.8089 26.2982 21.6284 25.6324 21.1556 25.2L16.6444 21.7778H24.8889C25.7132 21.7753 26.5031 21.4467 27.0861 20.8638C27.669 20.2809 27.9975 19.491 28 18.6667V6.22222C27.9975 5.39786 27.669 4.60797 27.0861 4.02505C26.5031 3.44214 25.7132 3.11357 24.8889 3.11111ZM24.8889 18.6667H3.11111V6.22222H24.8889V18.6667Z" fill="white"/>
</g>
<defs>
<clipPath id="clip0_7_14">
<rect width="28" height="28" fill="white"/>
</clipPath>
</defs>
</svg>
