<svg width="28" height="28" viewBox="0 0 28 28" fill="none" xmlns="http://www.w3.org/2000/svg">
<g clip-path="url(#clip0_7_5)">
<path d="M14.1556 0H13.8444C11.3556 0.00622222 9.338 2.02222 9.33333 4.51111V6.37778C9.33955 8.86667 11.3556 10.8827 13.8444 10.8889H14.1556C16.6444 10.8827 18.6604 8.86667 18.6667 6.37778V4.51111C18.6604 2.02222 16.6444 0.00466667 14.1556 0ZM27.8569 11.0289C28.0902 10.7956 28.3484 10.5933 28.616 10.4222C28.3484 10.6027 28.0918 10.8064 27.8569 11.0413V11.0289ZM28.616 10.4222C28.8836 10.2387 29.1604 10.1002 29.4498 9.982C29.162 10.1002 28.8836 10.2511 28.616 10.4222ZM23.3333 14C22.9289 14 22.5447 14.0684 22.1713 14.1649C22.9102 15.5027 23.3333 17.0349 23.3333 18.6667V24.8889H26.4444C27.3 24.8889 28 24.1967 28 23.3411V18.6667C28 16.1 25.9 14 23.3333 14ZM5.82867 14.1649C5.45533 14.0684 5.07111 14 4.66667 14C2.1 14 0 16.1 0 18.6667V23.3411C0 24.1967 0.7 24.8889 1.55556 24.8889H4.66667V18.6667C4.66667 17.0333 5.08978 15.5011 5.82867 14.1649ZM23.4376 4.66667H23.2291C21.5693 4.67133 20.2269 6.11022 20.2222 7.88667V9.22444C20.2269 11.0009 21.5693 12.4398 23.2276 12.4444H23.4376C25.0958 12.4398 26.4398 11.0009 26.4429 9.22444V7.88667C26.4351 6.11022 25.0927 4.67133 23.4344 4.66667H23.4376ZM4.77089 4.66667H4.56089C2.90267 4.67133 1.55867 6.11022 1.55556 7.88667V9.22444C1.56022 11.0009 2.90267 12.4398 4.56089 12.4444H4.77089C6.43067 12.4398 7.77311 11.0009 7.77778 9.22444V7.88667C7.77311 6.11022 6.43067 4.67133 4.77244 4.66667H4.77089Z" fill="white"/>
<path d="M14.1555 0H13.8444C11.3555 0.00622222 9.33799 2.02222 9.33333 4.51111V6.37778C9.33955 8.86667 11.3555 10.8827 13.8444 10.8889H14.1555C16.6444 10.8827 18.6604 8.86667 18.6667 6.37778V4.51111C18.6604 2.02222 16.6444 0.00466667 14.1555 0ZM17.1111 28H10.8889C9.17777 28 7.77777 26.6 7.77777 24.8889V18.6667C7.77777 15.2444 10.5778 12.4444 14 12.4444C17.4222 12.4444 20.2222 15.2444 20.2222 18.6667V24.8889C20.2222 26.6 18.8222 28 17.1111 28Z" fill="white"/>
</g>
<defs>
<clipPath id="clip0_7_5">
<rect width="28" height="28" fill="white"/>
</clipPath>
</defs>
</svg>
