<svg width="28" height="28" viewBox="0 0 28 28" fill="none" xmlns="http://www.w3.org/2000/svg">
<g clip-path="url(#clip0_7_9)">
<path d="M26.4444 0H1.55556C0.622222 0 0 0.777778 0 1.55556V14V17.4222C0.466667 17.2667 1.08889 17.1111 1.55556 17.1111C2.02222 17.1111 2.64444 17.2667 3.11111 17.4222V15.5556H6.22222V18.6667H4.97778L6.22222 19.9111L9.33333 16.8V15.5556H10.5778L13.8444 12.2889C14.3111 11.8222 14.9333 11.3556 15.5556 11.2V9.33333H18.6667V11.2C19.2889 11.3556 19.9111 11.8222 20.3778 12.2889C21.3111 13.0667 21.7778 14.3111 21.7778 15.5556H24.8889V18.6667H21.7778V15.5556C21.7778 16.8 21.3111 18.0444 20.3778 18.8222L17.4222 21.7778H18.6667V24.8889H15.5556V23.6444L11.2 28H14H26.4444C27.3778 28 28 27.2222 28 26.4444V14V1.55556C28 0.777778 27.3778 0 26.4444 0ZM6.22222 12.4444H3.11111V9.33333H6.22222V12.4444ZM6.22222 6.22222H3.11111V3.11111H6.22222V6.22222ZM12.4444 12.4444H9.33333V9.33333H12.4444V12.4444ZM12.4444 6.22222H9.33333V3.11111H12.4444V6.22222ZM18.6667 6.22222H15.5556V3.11111H18.6667V6.22222ZM24.8889 24.8889H21.7778V21.7778H24.8889V24.8889ZM24.8889 12.4444H21.7778V9.33333H24.8889V12.4444ZM24.8889 6.22222H21.7778V3.11111H24.8889V6.22222Z" fill="white"/>
<path d="M18.2 14.4667C17.5778 13.8444 16.6445 13.8444 16.0223 14.4667L6.22225 24.2667L2.64447 20.6889C2.02225 20.0667 1.08892 20.0667 0.466697 20.6889C-0.155525 21.3111 -0.155525 22.2444 0.466697 22.8667L5.13336 27.5333C5.44447 27.8444 5.75559 28 6.22225 28C6.68892 28 7.00003 27.8444 7.31114 27.5333L18.2 16.6444C18.8223 16.0222 18.8223 15.0889 18.2 14.4667Z" fill="white"/>
<path d="M17.1111 14C17.5778 14 17.8889 14.1556 18.2 14.4667C18.8223 15.0889 18.8223 16.0222 18.2 16.6444L7.31114 27.5333C7.00003 27.8444 6.68892 28 6.22225 28C5.75559 28 5.44447 27.8444 5.13336 27.5333L0.466697 22.8667C-0.155525 22.2444 -0.155525 21.3111 0.466697 20.6889C0.777808 20.3778 1.08892 20.2222 1.55559 20.2222C2.02225 20.2222 2.33336 20.3778 2.64447 20.6889L6.22225 24.2667L16.0223 14.4667C16.3334 14.1556 16.6445 14 17.1111 14Z" fill="white"/>
</g>
<defs>
<clipPath id="clip0_7_9">
<rect width="28" height="28" fill="white"/>
</clipPath>
</defs>
</svg>
